<svg width="278" height="276" viewBox="0 0 278 276" fill="none" xmlns="http://www.w3.org/2000/svg">
<path d="M84.0531 0.117833C73.8872 1.58349 64.0621 4.51481 54.8617 8.85542C27.5444 21.7645 8.74607 45.1023 1.64699 75.0356C0.113585 81.5183 0 82.4202 0 95.893C0 108.351 0.170378 110.606 1.24944 115.623C3.18039 124.248 5.67926 131.238 9.71154 139.299C23.1146 166.132 47.933 184.904 78.1467 190.992C83.7692 192.119 86.2112 192.288 97.1154 192.232C107.849 192.232 110.462 192.063 115.573 190.935C128.863 188.117 140.732 183.156 151.58 175.941L157.259 172.22L168.561 183.438L179.862 194.656L178.67 196.854C177.193 199.504 177.079 204.239 178.386 206.832C178.897 207.847 194.515 223.8 213.143 242.346L247.048 276H250.172H253.295L265.676 263.711C277.035 252.437 278 251.309 278 249.505C278 247.645 276.012 245.559 243.243 213.033C224.104 194.036 207.691 178.252 206.839 177.97C204.17 176.955 199.569 177.237 197.127 178.534L194.912 179.717L183.554 168.443L172.195 157.169L174.183 154.689C182.191 144.993 189.063 129.772 192.357 114.777C193.436 109.648 193.606 107.167 193.663 96.4567C193.663 85.6898 193.493 83.2094 192.357 77.6287C184.463 39.0142 155.555 9.87009 116.652 1.358C112.336 0.456052 108.928 0.174201 98.5352 0.0614584C91.493 -0.0512846 85.0186 0.00509034 84.0531 0.117833ZM111.882 21.8209C141.47 27.7962 165.039 51.134 171.571 80.9546C173.047 87.7192 173.104 104.067 171.627 110.831C168.333 125.939 161.461 138.623 150.501 149.502C139.88 160.1 126.988 167.09 112.165 170.303C105.407 171.769 91.8905 172.051 84.8482 170.867C60.3706 166.808 38.7894 150.968 28.1124 129.152C19.2527 111.113 18.0601 89.9176 24.7616 70.9768C32.3718 49.5556 49.8072 32.1932 71.2748 24.6958C84.5075 20.0733 98.3081 19.115 111.882 21.8209Z" fill="white"/>
</svg>
